HIERARCHY
ROOT Hips
{
	OFFSET -3.958830 18.904000 13.208200
	CHANNELS 6 Xposition Yposition Zposition Zrotation Yrotation Xrotation 
	JOINT LHipJoint
	{
		OFFSET 0.000000 0.000000 0.000000
		CHANNELS 3 Zrotation Yrotation Xrotation
		JOINT LeftUpLeg
		{
			OFFSET 1.800000 -1.400000 0.085000
			CHANNELS 3 Zrotation Yrotation Xrotation
			JOINT LeftLeg
			{
				OFFSET 2.215000 -6.000000 0.000000
				CHANNELS 3 Zrotation Yrotation Xrotation
				JOINT LeftFoot
				{
					OFFSET 2.500000 -6.900000 0.000000
					CHANNELS 3 Zrotation Yrotation Xrotation
					JOINT LeftToeBase
					{
						OFFSET 0.200000 -0.500000 1.950000
						CHANNELS 3 Zrotation Yrotation Xrotation
						End Site
						{
							OFFSET 0.000000 0.000000 0.000000
						}
					}
				}
			}
		}
	}
	JOINT RHipJoint
	{
		OFFSET 0.000000 0.000000 0.000000
		CHANNELS 3 Zrotation Yrotation Xrotation
		JOINT RightUpLeg
		{
			OFFSET -1.800000 -1.400000 0.085000
			CHANNELS 3 Zrotation Yrotation Xrotation
			JOINT RightLeg
			{
				OFFSET -2.215000 -6.000000 0.000000
				CHANNELS 3 Zrotation Yrotation Xrotation
				JOINT RightFoot
				{
					OFFSET -2.500000 -6.900000 0.000000
					CHANNELS 3 Zrotation Yrotation Xrotation
					JOINT RightToeBase
					{
						OFFSET -0.200000 -0.500000 1.950000
						CHANNELS 3 Zrotation Yrotation Xrotation
						End Site
						{
							OFFSET 0.000000 0.000000 0.000000
						}
					}
				}
			}
		}
	}
	JOINT LowerBack
	{
		OFFSET 0.000000 0.000000 0.000000
		CHANNELS 3 Zrotation Yrotation Xrotation
		JOINT Spine
		{
			OFFSET -0.087000 1.940000 -0.288900
			CHANNELS 3 Zrotation Yrotation Xrotation
			JOINT Spine1
			{
				OFFSET 0.000000 1.950000 0.060000
				CHANNELS 3 Zrotation Yrotation Xrotation
				JOINT Neck
				{
					OFFSET 0.000000 0.000000 0.000000
					CHANNELS 3 Zrotation Yrotation Xrotation
					JOINT Neck1
					{
						OFFSET 0.000000 1.600000 0.340000
						CHANNELS 3 Zrotation Yrotation Xrotation
						JOINT Head
						{
							OFFSET 0.000000 1.667000 -0.240000
							CHANNELS 3 Zrotation Yrotation Xrotation
							End Site
							{
								OFFSET 0.000000 0.000000 0.000000
							}
						}
					}
				}
				JOINT LeftShoulder
				{
					OFFSET 0.000000 0.000000 0.000000
					CHANNELS 3 Zrotation Yrotation Xrotation
					JOINT LeftArm
					{
						OFFSET 2.700000 1.550000 -0.730000
						CHANNELS 3 Zrotation Yrotation Xrotation
						JOINT LeftForeArm
						{
							OFFSET 5.450000 0.000000 0.000000
							CHANNELS 3 Zrotation Yrotation Xrotation
							JOINT LeftHand
							{
								OFFSET 3.450000 0.000000 0.000000
								CHANNELS 3 Zrotation Yrotation Xrotation
								JOINT LeftHandIndex1
								{
									OFFSET 0.750000 0.000000 0.000000
									CHANNELS 3 Zrotation Yrotation Xrotation
									End Site
									{
										OFFSET 0.000000 0.000000 0.000000
									}
								}
							}
						}
					}
				}
				JOINT RightShoulder
				{
					OFFSET 0.000000 0.000000 0.000000
					CHANNELS 3 Zrotation Yrotation Xrotation
					JOINT RightArm
					{
						OFFSET -2.700000 1.550000 -0.730000
						CHANNELS 3 Zrotation Yrotation Xrotation
						JOINT RightForeArm
						{
							OFFSET -5.450000 0.000000 0.000000
							CHANNELS 3 Zrotation Yrotation Xrotation
							JOINT RightHand
							{
								OFFSET -3.450000 0.000000 0.000000
								CHANNELS 3 Zrotation Yrotation Xrotation
								JOINT RightHandIndex1
								{
									OFFSET -0.750000 0.000000 0.000000
									CHANNELS 3 Zrotation Yrotation Xrotation
									End Site
									{
										OFFSET 0.000000 0.000000 0.000000
									}
								}
							}
						}
					}
				}
			}
		}
	}
}
MOTION
Frames: 13
Frame Time: 0.016667
-10.108320 16.941460 -1.788480 -5.755477 -3.796863 -10.931906 -15.595431 14.455793 4.412123 24.635086 2.571164 3.856290 -7.466710 5.834373 -3.319062 0.583039 5.907260 2.557312 0.399470 0.125760 0.336730 17.402728 -9.586484 2.888501 -29.480428 1.760104 -2.967431 10.353637 -5.511427 6.856253 -0.612915 -4.200065 2.812564 -0.110740 -0.403270 -0.133450 -1.830975 -6.170395 -9.564175 27.033403 -5.570432 28.639502 -10.925717 8.235548 10.225454 5.844843 1.561301 -36.449817 1.929867 -13.921881 65.569567 10.243270 -23.328750 -20.884380 -10.256849 -25.334200 13.817617 0.525450 17.876183 1.865262 5.036422 -2.651343 -0.206297 -3.266164 2.312606 0.793330 -0.634890 0.319420 0.046660 -2.173229 42.100545 19.896410 15.188111 30.322300 6.775457 -5.079730 -7.204767 1.856383 3.468594 -0.410015 -0.009150 0.154390 -0.127920 -0.123770 
-9.941990 16.993920 -1.833040 -6.706844 -3.301427 -13.489748 -15.623423 14.458156 4.474898 25.795188 2.886891 5.774661 -8.249593 6.145375 -3.204895 0.739111 6.159311 2.490007 0.439730 0.198320 0.366790 17.405153 -9.689957 2.631537 -30.691000 2.017697 -2.904065 12.482010 -7.079822 13.151908 -0.674442 -4.651879 2.610430 -0.107480 -0.421180 -0.085260 -1.796455 -6.184841 -9.449905 26.809184 -6.008533 30.943725 -9.773894 5.974346 14.390122 6.331754 2.292860 -36.235832 2.140805 -14.374158 62.621725 10.852870 -22.746350 -22.460580 -9.851994 -27.485194 15.472421 -0.839844 19.069692 1.972434 4.917085 0.727424 -0.216734 -3.273014 2.364343 0.763890 -0.637120 0.378280 0.075730 -4.148357 42.761743 18.655368 10.281264 31.599770 5.651822 -5.724410 -5.356964 1.584990 3.564965 -0.374321 0.057240 0.122010 -0.184890 -0.087190 
-9.799820 17.053700 -1.883430 -7.293611 -2.782104 -16.188896 -15.683703 14.393961 4.598500 26.951743 3.233248 8.237441 -9.457994 6.351892 -4.093745 0.833252 6.542764 2.364625 0.447070 0.206950 0.382700 17.398995 -9.598149 2.503961 -32.132341 3.118790 -2.642680 15.478731 -9.134346 20.116815 -0.776869 -5.479270 2.284541 -0.101160 -0.425400 -0.080240 -1.712229 -6.384483 -9.421463 26.183090 -7.041498 33.943244 -10.337310 4.552879 18.399803 6.933855 2.808439 -37.102624 2.538938 -14.235841 60.226446 12.385610 -21.763620 -23.898070 -7.631589 -29.392082 16.824756 -2.777971 20.812411 2.102572 3.714798 5.152943 -0.438320 -3.364936 2.194971 0.780470 -0.638430 0.387620 0.065030 -8.213975 44.783890 17.837212 7.880366 31.541809 4.517182 -5.998713 -5.906975 1.542704 3.735419 -0.343141 0.053100 0.121470 -0.183670 -0.100910 
-9.650820 17.101230 -1.852550 -8.683442 -1.336751 -12.221295 -15.751332 14.213557 4.684172 26.794157 2.827311 4.306777 -10.466207 6.057478 -4.700492 0.750776 6.439847 2.392229 0.428680 0.160670 0.368240 17.389554 -9.173162 2.809039 -33.137325 5.049794 -7.266094 21.436240 -11.970203 25.197773 -0.868725 -6.360880 1.950204 -0.114200 -0.387340 -0.046000 -1.661813 -6.460024 -9.700877 27.978277 -5.814224 29.887242 -8.909691 6.376451 10.741635 5.505548 3.102465 -35.550462 5.193321 -15.967470 61.604360 8.763410 -22.691770 -20.361810 -12.178848 -27.047183 15.069613 2.513229 18.392509 2.388429 4.008884 2.386755 -0.406183 -3.459331 2.198722 0.757150 -0.588370 0.357080 0.074320 -0.768918 40.980445 18.691889 14.820809 30.789727 5.459733 -7.730211 -2.375305 1.300206 3.287640 -0.596377 0.047210 0.116630 -0.159610 -0.100960 
-9.507520 17.162580 -1.822390 -9.644077 -0.456557 -9.201046 -15.808830 14.024938 4.617050 26.267732 2.526880 1.411468 -10.989388 5.842518 -4.746701 0.674011 6.225279 2.422026 0.465200 0.207930 0.396750 17.403337 -8.664350 3.328471 -34.943156 6.616327 -11.369868 28.170669 -15.253687 28.405011 -1.103313 -7.368959 1.599078 -0.092740 -0.421950 -0.022170 -1.604675 -6.629796 -9.963176 28.950115 -4.862325 27.183976 -8.493027 7.890719 3.640157 4.944804 3.539616 -33.474102 7.768431 -17.549595 62.660985 5.889750 -22.447660 -19.659990 -15.533144 -25.604805 13.863567 6.318849 16.722841 2.460240 3.638888 2.157151 -0.469165 -3.500388 2.203126 0.748790 -0.583690 0.379100 0.077120 3.536413 38.579732 17.344834 21.476026 29.539271 7.513696 -6.390300 -2.593873 1.481600 3.176231 -0.694997 0.075620 0.090700 -0.179090 -0.105050 
-9.360710 17.209560 -1.870930 -11.192637 -0.213953 -12.153011 -15.762835 13.686097 4.544540 27.725559 2.743841 4.105323 -11.464672 6.057806 -5.155070 0.803856 6.485356 2.332298 0.518930 0.302500 0.421320 17.544418 -8.358402 3.595008 -36.144281 7.936295 -10.346438 34.721244 -18.753148 31.232409 -1.470645 -8.478572 1.256482 -0.063350 -0.472510 -0.023080 -1.848006 -6.422706 -9.905861 32.054577 -6.381641 29.216792 -10.494229 6.263455 8.768966 5.686073 4.076854 -33.480850 7.461653 -17.556809 60.378381 8.482300 -21.954030 -23.781150 -14.517919 -27.415441 14.960185 5.948929 16.885851 2.466928 2.905470 1.440985 -0.474322 -3.340287 2.318690 0.745370 -0.624850 0.423860 0.086320 0.510040 39.882465 17.114365 18.097828 32.198321 7.401487 -5.939958 -4.129643 1.601693 3.329441 -0.617093 0.121530 0.068230 -0.225990 -0.090120 
-9.220510 17.266040 -1.863180 -12.452071 -0.016829 -10.989478 -15.764758 13.579739 4.466735 27.799687 2.621882 2.812900 -11.455843 6.057578 -4.893784 0.767662 6.417460 2.343497 0.513600 0.290920 0.391520 17.599416 -7.886840 4.060887 -37.602299 9.116409 -12.948448 42.276233 -22.158879 32.040427 -1.729571 -9.204166 1.064763 -0.064170 -0.463370 -0.042010 -1.911481 -6.799921 -10.042161 34.781430 -7.278248 27.928540 -12.134011 7.105348 6.735177 5.942789 3.146594 -33.671469 4.828162 -16.349692 62.538538 8.902670 -22.692120 -23.132470 -15.267761 -26.833807 14.075866 5.964808 13.415770 1.791269 3.842201 8.022517 -0.579790 -3.622415 2.147254 0.743840 -0.634740 0.402720 0.096520 1.249965 40.327626 17.720563 21.134686 31.732467 7.593594 -6.870649 -3.076834 1.576676 3.246056 -0.716585 0.113200 0.072890 -0.219240 -0.080800 
-9.093590 17.310370 -1.833060 -13.483058 0.743291 -8.371426 -15.819499 13.435677 4.402290 27.406211 2.273785 0.243157 -11.248980 5.820800 -4.994385 0.689804 6.212322 2.389807 0.508340 0.288130 0.404220 17.606739 -7.388138 4.583484 -39.932752 9.345951 -16.514665 51.462853 -25.421178 30.527754 -1.943116 -9.678986 0.965799 -0.055900 -0.474860 -0.049670 -1.829706 -7.153711 -10.307141 35.597532 -6.386797 25.636564 -11.304143 8.042147 2.686548 5.712687 3.386598 -32.865788 5.843784 -17.320308 61.918192 4.918630 -22.527770 -20.506570 -17.360700 -26.141336 13.368386 7.053537 12.847096 1.655248 4.051679 9.046542 -0.551874 -3.680701 2.148296 0.711860 -0.608030 0.383480 0.090540 3.717841 39.439858 16.979639 24.542848 31.125364 9.256941 -4.557572 -5.954199 1.897917 3.295489 -0.709998 0.108230 0.059850 -0.227200 -0.091760 
-8.969970 17.335490 -1.818160 -15.032586 1.040001 -6.916818 -15.791713 13.134547 4.361550 27.730195 1.892387 -1.104171 -11.033523 5.621172 -5.446273 0.649885 6.173660 2.396856 0.470010 0.235450 0.393680 17.698379 -7.104476 4.928471 -41.583436 9.101801 -19.184422 60.305584 -28.330593 28.633078 -2.110329 -9.982949 0.919292 -0.079460 -0.446160 -0.026910 -1.972945 -6.999263 -10.402451 37.722298 -6.204673 24.151490 -11.551692 8.523193 1.107123 5.214934 3.919334 -32.043088 7.283144 -18.380999 58.775798 3.134770 -22.091580 -18.889400 -17.370592 -26.051190 13.160014 6.752199 12.164089 1.509814 3.489127 8.572359 -0.650684 -3.723376 2.159511 0.688820 -0.559890 0.355110 0.076080 4.229043 38.467205 16.583065 27.232988 29.319987 9.409608 -3.952794 -5.885030 1.930183 3.211094 -0.765357 0.098110 0.046160 -0.201340 -0.103340 
-8.859870 17.352040 -1.805730 -16.261154 1.272511 -6.281494 -15.757531 12.883414 4.304000 28.021904 1.603953 -1.441180 -10.926478 5.517920 -5.716248 0.638952 6.174020 2.396395 0.465440 0.219010 0.419610 17.785176 -6.927459 5.177323 -43.277036 8.450057 -20.760600 69.427108 -30.437608 25.768729 -2.244787 -10.078158 0.912935 -0.086410 -0.450360 -0.007200 -2.118849 -6.782783 -10.441041 39.310806 -6.131826 23.097529 -11.795015 8.353984 0.873425 5.028981 4.538742 -31.455120 8.539561 -19.457676 56.437959 1.834150 -21.793420 -18.610190 -17.503278 -26.470234 13.298718 6.729998 11.845280 1.539926 2.286908 7.286279 -0.812801 -3.676025 2.187045 0.683150 -0.546230 0.358790 0.066560 4.267424 37.949288 16.194342 28.517042 28.950141 9.614291 -3.667643 -5.160735 1.906408 3.164098 -0.801994 0.098370 0.032700 -0.203720 -0.114870 
-8.767530 17.351960 -1.793270 -17.226335 1.807973 -5.712478 -15.681292 12.575583 4.204434 28.104968 1.218170 -1.642380 -10.510464 5.338329 -6.010235 0.553816 6.134369 2.422373 0.473360 0.208210 0.456930 17.905915 -6.882804 5.419147 -45.001437 7.337136 -22.280329 79.075191 -31.866446 22.147566 -2.330523 -10.070406 0.957393 -0.060640 -0.439570 -0.021030 -2.360744 -6.245256 -10.483539 39.953082 -5.515173 21.512311 -10.520391 7.485469 1.511811 4.802388 5.168319 -30.591446 9.742369 -20.317494 53.308456 0.027810 -21.025280 -18.139330 -18.096845 -27.335252 13.391820 5.914426 10.407714 1.121860 3.095644 9.972872 -0.781372 -3.757277 2.171555 0.699450 -0.518670 0.337250 0.065770 4.870714 37.198504 15.669531 28.383246 28.643592 9.376054 -3.922894 -4.047762 1.757464 3.092793 -0.829484 0.048570 0.056660 -0.210910 -0.152080 
-8.679180 17.346490 -1.794340 -18.261714 2.481379 -5.566416 -15.602845 12.144626 4.152837 28.536673 0.893936 -1.387971 -10.608770 5.158478 -6.843901 0.541715 6.179635 2.405916 0.479380 0.216500 0.478910 18.050739 -6.795368 5.656608 -46.564253 6.157092 -23.280341 89.917000 -31.573956 17.146839 -2.380052 -9.914061 1.034721 -0.043350 -0.441820 -0.014820 -2.641464 -5.576421 -10.506847 41.116771 -5.331273 20.357051 -10.533444 6.938554 2.304697 4.442667 5.903786 -29.808096 11.437272 -21.485169 49.740627 -1.248530 -20.474590 -17.907080 -17.565115 -27.945207 13.717549 6.722534 10.094890 1.185612 1.105205 8.785045 -1.088544 -3.726949 2.167285 0.683530 -0.492390 0.326670 0.057010 4.518125 36.467655 15.229690 28.813374 29.077882 9.560154 -4.187929 -3.349307 1.674551 3.048105 -0.877245 0.041600 0.047630 -0.215680 -0.168540 
-8.593510 17.348840 -1.798360 -18.782323 3.230744 -5.565138 -15.569431 11.837542 4.039451 28.448704 0.601966 -1.077021 -10.552106 5.007495 -7.341385 0.499399 6.197106 2.393745 0.453950 0.194450 0.454420 18.149073 -6.556047 6.036616 -47.977050 5.020606 -23.772681 99.896880 -28.605079 11.555716 -2.360053 -9.569166 1.155386 -0.037040 -0.416690 -0.006660 -2.789350 -5.260869 -10.603462 41.313679 -5.453690 19.786106 -10.482062 6.459925 2.945080 4.321675 6.370011 -29.523428 12.453474 -21.966741 47.649807 -1.476050 -20.250240 -17.826520 -17.915973 -28.726086 13.710280 7.181569 8.792504 0.714915 2.086055 11.836902 -1.089087 -3.884006 2.124492 0.674260 -0.460740 0.300400 0.036940 4.816344 36.347830 15.165848 28.669811 29.306839 9.417877 -4.630991 -2.311853 1.577738 2.986216 -0.895231 0.023960 0.053300 -0.175160 -0.179450 
